<mxfile host="app.diagrams.net" modified="2022-08-17T05:29:05.537Z" agent="5.0 (Windows NT 10.0; Win64; x64) AppleWebKit/537.36 (KHTML, like Gecko) Chrome/104.0.0.0 Safari/537.36" etag="mcCderq8eMoNVvlJQCNF" version="20.2.4" type="github" pages="2">
  <diagram id="VRYX7vsJ5zyf21zDAFwm" name="Page-1">
    <mxGraphModel dx="1678" dy="929" grid="1" gridSize="10" guides="1" tooltips="1" connect="1" arrows="1" fold="1" page="1" pageScale="1" pageWidth="850" pageHeight="1100" math="0" shadow="0">
      <root>
        <mxCell id="0" />
        <mxCell id="1" parent="0" />
        <mxCell id="sz4ziQdkb5z2PlqjpkCX-1" value="&lt;font style=&quot;font-size: 20px;&quot;&gt;Customer&lt;/font&gt;" style="rounded=0;whiteSpace=wrap;html=1;fillColor=#dae8fc;strokeColor=#6c8ebf;" parent="1" vertex="1">
          <mxGeometry x="350" y="70" width="120" height="60" as="geometry" />
        </mxCell>
        <mxCell id="sz4ziQdkb5z2PlqjpkCX-2" value="&lt;font style=&quot;font-size: 20px;&quot;&gt;User&lt;/font&gt;" style="rounded=0;whiteSpace=wrap;html=1;fillColor=#dae8fc;strokeColor=#6c8ebf;" parent="1" vertex="1">
          <mxGeometry x="350" y="170" width="120" height="60" as="geometry" />
        </mxCell>
        <mxCell id="sz4ziQdkb5z2PlqjpkCX-3" value="&lt;font style=&quot;font-size: 20px;&quot;&gt;Vehicle&lt;/font&gt;" style="rounded=0;whiteSpace=wrap;html=1;fillColor=#dae8fc;strokeColor=#6c8ebf;" parent="1" vertex="1">
          <mxGeometry x="350" y="260" width="120" height="60" as="geometry" />
        </mxCell>
        <mxCell id="sz4ziQdkb5z2PlqjpkCX-4" value="&lt;font style=&quot;font-size: 20px;&quot;&gt;Location&lt;/font&gt;" style="rounded=0;whiteSpace=wrap;html=1;fillColor=#dae8fc;strokeColor=#6c8ebf;" parent="1" vertex="1">
          <mxGeometry x="350" y="360" width="120" height="60" as="geometry" />
        </mxCell>
        <mxCell id="sz4ziQdkb5z2PlqjpkCX-5" value="&lt;font style=&quot;font-size: 20px;&quot;&gt;Reservation&lt;/font&gt;" style="rounded=0;whiteSpace=wrap;html=1;fillColor=#dae8fc;strokeColor=#6c8ebf;" parent="1" vertex="1">
          <mxGeometry x="350" y="570" width="120" height="60" as="geometry" />
        </mxCell>
        <mxCell id="sz4ziQdkb5z2PlqjpkCX-6" value="&lt;font style=&quot;font-size: 20px;&quot;&gt;Insurance&lt;/font&gt;" style="rounded=0;whiteSpace=wrap;html=1;fillColor=#dae8fc;strokeColor=#6c8ebf;" parent="1" vertex="1">
          <mxGeometry x="350" y="460" width="120" height="60" as="geometry" />
        </mxCell>
        <mxCell id="sz4ziQdkb5z2PlqjpkCX-7" value="" style="rounded=0;whiteSpace=wrap;html=1;fontSize=20;fillColor=none;" parent="1" vertex="1">
          <mxGeometry x="170" y="30" width="480" height="660" as="geometry" />
        </mxCell>
        <mxCell id="sz4ziQdkb5z2PlqjpkCX-8" value="&lt;font style=&quot;font-size: 29px;&quot;&gt;Subdomains&lt;/font&gt;" style="text;html=1;strokeColor=none;fillColor=none;align=center;verticalAlign=middle;whiteSpace=wrap;rounded=0;fontSize=20;" parent="1" vertex="1">
          <mxGeometry x="365" y="720" width="60" height="30" as="geometry" />
        </mxCell>
      </root>
    </mxGraphModel>
  </diagram>
  <diagram id="7M_zm9nrWhzSplebkAFU" name="Page-2">
    <mxGraphModel dx="1678" dy="929" grid="1" gridSize="10" guides="1" tooltips="1" connect="1" arrows="1" fold="1" page="1" pageScale="1" pageWidth="850" pageHeight="1100" math="0" shadow="0">
      <root>
        <mxCell id="0" />
        <mxCell id="1" parent="0" />
        <mxCell id="hqxpLSXbO06OZvYrCJ2E-2" value="&lt;div style=&quot;&quot;&gt;&lt;span style=&quot;background-color: initial;&quot;&gt;&lt;font style=&quot;font-size: 13px;&quot;&gt;Registration&lt;/font&gt;&lt;/span&gt;&lt;/div&gt;" style="ellipse;whiteSpace=wrap;html=1;fontSize=29;fillColor=#1ba1e2;strokeColor=#006EAF;align=center;fontColor=#ffffff;" parent="1" vertex="1">
          <mxGeometry x="271" y="283" width="130" height="50" as="geometry" />
        </mxCell>
        <mxCell id="hqxpLSXbO06OZvYrCJ2E-3" value="&lt;div style=&quot;&quot;&gt;&lt;span style=&quot;background-color: initial;&quot;&gt;&lt;font style=&quot;font-size: 13px;&quot;&gt;Login&lt;/font&gt;&lt;/span&gt;&lt;/div&gt;" style="ellipse;whiteSpace=wrap;html=1;fontSize=29;fillColor=#1ba1e2;strokeColor=#006EAF;align=center;fontColor=#ffffff;" parent="1" vertex="1">
          <mxGeometry x="271" y="420" width="130" height="43" as="geometry" />
        </mxCell>
        <mxCell id="hqxpLSXbO06OZvYrCJ2E-4" value="&lt;div style=&quot;&quot;&gt;&lt;span style=&quot;background-color: initial;&quot;&gt;&lt;font style=&quot;font-size: 13px;&quot;&gt;Search/View Location&lt;/font&gt;&lt;/span&gt;&lt;/div&gt;" style="ellipse;whiteSpace=wrap;html=1;fontSize=29;fillColor=#1ba1e2;strokeColor=#006EAF;align=center;fontColor=#ffffff;" parent="1" vertex="1">
          <mxGeometry x="271" y="483" width="139" height="50" as="geometry" />
        </mxCell>
        <mxCell id="hqxpLSXbO06OZvYrCJ2E-5" value="&lt;div style=&quot;&quot;&gt;&lt;span style=&quot;background-color: initial;&quot;&gt;&lt;font style=&quot;font-size: 13px;&quot;&gt;Update profile&lt;/font&gt;&lt;/span&gt;&lt;/div&gt;" style="ellipse;whiteSpace=wrap;html=1;fontSize=29;fillColor=#1ba1e2;strokeColor=#006EAF;align=center;fontColor=#ffffff;" parent="1" vertex="1">
          <mxGeometry x="271" y="353" width="130" height="50" as="geometry" />
        </mxCell>
        <mxCell id="hqxpLSXbO06OZvYrCJ2E-6" value="&lt;div style=&quot;&quot;&gt;&lt;span style=&quot;background-color: initial;&quot;&gt;&lt;font style=&quot;font-size: 13px;&quot;&gt;Select date time&lt;/font&gt;&lt;/span&gt;&lt;/div&gt;" style="ellipse;whiteSpace=wrap;html=1;fontSize=29;fillColor=#1ba1e2;strokeColor=#006EAF;align=center;fontColor=#ffffff;" parent="1" vertex="1">
          <mxGeometry x="271" y="553" width="130" height="50" as="geometry" />
        </mxCell>
        <mxCell id="hqxpLSXbO06OZvYrCJ2E-7" value="&lt;div style=&quot;&quot;&gt;&lt;span style=&quot;background-color: initial;&quot;&gt;&lt;font style=&quot;font-size: 13px;&quot;&gt;View vehicle details&lt;/font&gt;&lt;/span&gt;&lt;/div&gt;" style="ellipse;whiteSpace=wrap;html=1;fontSize=29;fillColor=#1ba1e2;strokeColor=#006EAF;align=center;fontColor=#ffffff;" parent="1" vertex="1">
          <mxGeometry x="271" y="623" width="130" height="50" as="geometry" />
        </mxCell>
        <mxCell id="hqxpLSXbO06OZvYrCJ2E-8" value="&lt;div style=&quot;&quot;&gt;&lt;span style=&quot;background-color: initial;&quot;&gt;&lt;font style=&quot;font-size: 13px;&quot;&gt;View insurance options&lt;/font&gt;&lt;/span&gt;&lt;/div&gt;" style="ellipse;whiteSpace=wrap;html=1;fontSize=29;fillColor=#1ba1e2;strokeColor=#006EAF;align=center;fontColor=#ffffff;" parent="1" vertex="1">
          <mxGeometry x="271" y="693" width="140" height="50" as="geometry" />
        </mxCell>
        <mxCell id="hqxpLSXbO06OZvYrCJ2E-9" value="&lt;div style=&quot;&quot;&gt;&lt;span style=&quot;background-color: initial;&quot;&gt;&lt;font style=&quot;font-size: 13px;&quot;&gt;Upload driver license&lt;/font&gt;&lt;/span&gt;&lt;/div&gt;" style="ellipse;whiteSpace=wrap;html=1;fontSize=29;fillColor=#1ba1e2;strokeColor=#006EAF;align=center;fontColor=#ffffff;" parent="1" vertex="1">
          <mxGeometry x="271" y="773" width="130" height="50" as="geometry" />
        </mxCell>
        <mxCell id="hqxpLSXbO06OZvYrCJ2E-10" value="&lt;div style=&quot;&quot;&gt;&lt;span style=&quot;background-color: initial;&quot;&gt;&lt;font style=&quot;font-size: 13px;&quot;&gt;Book vehicle&lt;/font&gt;&lt;/span&gt;&lt;/div&gt;" style="ellipse;whiteSpace=wrap;html=1;fontSize=29;fillColor=#1ba1e2;strokeColor=#006EAF;align=center;fontColor=#ffffff;" parent="1" vertex="1">
          <mxGeometry x="271" y="843" width="130" height="50" as="geometry" />
        </mxCell>
        <mxCell id="hqxpLSXbO06OZvYrCJ2E-11" value="&lt;div style=&quot;&quot;&gt;&lt;span style=&quot;background-color: initial;&quot;&gt;&lt;font style=&quot;font-size: 13px;&quot;&gt;Make payment&lt;/font&gt;&lt;/span&gt;&lt;/div&gt;" style="ellipse;whiteSpace=wrap;html=1;fontSize=29;fillColor=#1ba1e2;strokeColor=#006EAF;align=center;fontColor=#ffffff;" parent="1" vertex="1">
          <mxGeometry x="271" y="903" width="130" height="50" as="geometry" />
        </mxCell>
        <mxCell id="hqxpLSXbO06OZvYrCJ2E-12" value="&lt;div style=&quot;&quot;&gt;&lt;span style=&quot;background-color: initial;&quot;&gt;&lt;font style=&quot;font-size: 13px;&quot;&gt;View contract&lt;/font&gt;&lt;/span&gt;&lt;/div&gt;" style="ellipse;whiteSpace=wrap;html=1;fontSize=29;fillColor=#1ba1e2;strokeColor=#006EAF;align=center;fontColor=#ffffff;" parent="1" vertex="1">
          <mxGeometry x="271" y="976" width="130" height="50" as="geometry" />
        </mxCell>
        <mxCell id="hqxpLSXbO06OZvYrCJ2E-13" value="&lt;div style=&quot;&quot;&gt;&lt;span style=&quot;background-color: initial;&quot;&gt;&lt;font style=&quot;font-size: 13px;&quot;&gt;View booking history&lt;/font&gt;&lt;/span&gt;&lt;/div&gt;" style="ellipse;whiteSpace=wrap;html=1;fontSize=29;fillColor=#1ba1e2;strokeColor=#006EAF;align=center;fontColor=#ffffff;" parent="1" vertex="1">
          <mxGeometry x="271" y="1050" width="170" height="70" as="geometry" />
        </mxCell>
        <mxCell id="hqxpLSXbO06OZvYrCJ2E-14" value="&lt;div style=&quot;&quot;&gt;&lt;span style=&quot;background-color: initial;&quot;&gt;&lt;font style=&quot;font-size: 13px;&quot;&gt;Update/cancel reservation&lt;/font&gt;&lt;/span&gt;&lt;/div&gt;" style="ellipse;whiteSpace=wrap;html=1;fontSize=29;fillColor=#1ba1e2;strokeColor=#006EAF;align=center;fontColor=#ffffff;" parent="1" vertex="1">
          <mxGeometry x="271" y="1130" width="170" height="70" as="geometry" />
        </mxCell>
        <mxCell id="hqxpLSXbO06OZvYrCJ2E-15" value="&lt;div style=&quot;&quot;&gt;&lt;span style=&quot;background-color: initial;&quot;&gt;&lt;font style=&quot;font-size: 13px;&quot;&gt;Add vehicle&lt;/font&gt;&lt;/span&gt;&lt;/div&gt;" style="ellipse;whiteSpace=wrap;html=1;fontSize=29;fillColor=#1ba1e2;strokeColor=#006EAF;align=center;fontColor=#ffffff;" parent="1" vertex="1">
          <mxGeometry x="500" y="280" width="130" height="50" as="geometry" />
        </mxCell>
        <mxCell id="hqxpLSXbO06OZvYrCJ2E-16" value="&lt;div style=&quot;&quot;&gt;&lt;span style=&quot;background-color: initial;&quot;&gt;&lt;font style=&quot;font-size: 13px;&quot;&gt;Update/remove vehicle&lt;/font&gt;&lt;/span&gt;&lt;/div&gt;" style="ellipse;whiteSpace=wrap;html=1;fontSize=29;fillColor=#1ba1e2;strokeColor=#006EAF;align=center;fontColor=#ffffff;" parent="1" vertex="1">
          <mxGeometry x="500" y="353" width="150" height="50" as="geometry" />
        </mxCell>
        <mxCell id="hqxpLSXbO06OZvYrCJ2E-17" value="&lt;div style=&quot;&quot;&gt;&lt;span style=&quot;background-color: initial;&quot;&gt;&lt;font style=&quot;font-size: 13px;&quot;&gt;View reports&lt;/font&gt;&lt;/span&gt;&lt;/div&gt;" style="ellipse;whiteSpace=wrap;html=1;fontSize=29;fillColor=#1ba1e2;strokeColor=#006EAF;align=center;fontColor=#ffffff;" parent="1" vertex="1">
          <mxGeometry x="501" y="580" width="130" height="50" as="geometry" />
        </mxCell>
        <mxCell id="hqxpLSXbO06OZvYrCJ2E-18" value="&lt;div style=&quot;&quot;&gt;&lt;span style=&quot;background-color: initial;&quot;&gt;&lt;font style=&quot;font-size: 13px;&quot;&gt;Add/remove insurance&lt;/font&gt;&lt;/span&gt;&lt;/div&gt;" style="ellipse;whiteSpace=wrap;html=1;fontSize=29;fillColor=#1ba1e2;strokeColor=#006EAF;align=center;fontColor=#ffffff;" parent="1" vertex="1">
          <mxGeometry x="500" y="427" width="140" height="73" as="geometry" />
        </mxCell>
        <mxCell id="hqxpLSXbO06OZvYrCJ2E-19" value="&lt;div style=&quot;&quot;&gt;&lt;span style=&quot;background-color: initial;&quot;&gt;&lt;font style=&quot;font-size: 13px;&quot;&gt;Update/remove insurancel&lt;/font&gt;&lt;/span&gt;&lt;/div&gt;" style="ellipse;whiteSpace=wrap;html=1;fontSize=29;fillColor=#1ba1e2;strokeColor=#006EAF;align=center;fontColor=#ffffff;" parent="1" vertex="1">
          <mxGeometry x="500" y="510" width="175" height="60" as="geometry" />
        </mxCell>
        <mxCell id="hqxpLSXbO06OZvYrCJ2E-20" value="&lt;div style=&quot;&quot;&gt;&lt;span style=&quot;background-color: initial;&quot;&gt;&lt;font style=&quot;font-size: 13px;&quot;&gt;Validate ID&lt;/font&gt;&lt;/span&gt;&lt;/div&gt;" style="ellipse;whiteSpace=wrap;html=1;fontSize=29;fillColor=#1ba1e2;strokeColor=#006EAF;align=center;fontColor=#ffffff;" parent="1" vertex="1">
          <mxGeometry x="500" y="817" width="130" height="50" as="geometry" />
        </mxCell>
        <mxCell id="hqxpLSXbO06OZvYrCJ2E-21" value="&lt;div style=&quot;&quot;&gt;&lt;span style=&quot;background-color: initial;&quot;&gt;&lt;font style=&quot;font-size: 13px;&quot;&gt;Detect current location&lt;/font&gt;&lt;/span&gt;&lt;/div&gt;" style="ellipse;whiteSpace=wrap;html=1;fontSize=29;fillColor=#1ba1e2;strokeColor=#006EAF;align=center;fontColor=#ffffff;" parent="1" vertex="1">
          <mxGeometry x="500" y="667" width="155" height="50" as="geometry" />
        </mxCell>
        <mxCell id="hqxpLSXbO06OZvYrCJ2E-22" value="&lt;div style=&quot;&quot;&gt;&lt;span style=&quot;background-color: initial;&quot;&gt;&lt;font style=&quot;font-size: 13px;&quot;&gt;Generate and send contract&lt;/font&gt;&lt;/span&gt;&lt;/div&gt;" style="ellipse;whiteSpace=wrap;html=1;fontSize=29;fillColor=#1ba1e2;strokeColor=#006EAF;align=center;fontColor=#ffffff;" parent="1" vertex="1">
          <mxGeometry x="500" y="903" width="175" height="67" as="geometry" />
        </mxCell>
        <mxCell id="hqxpLSXbO06OZvYrCJ2E-23" value="&lt;div style=&quot;&quot;&gt;&lt;span style=&quot;background-color: initial;&quot;&gt;&lt;font style=&quot;font-size: 13px;&quot;&gt;Look up address&lt;/font&gt;&lt;/span&gt;&lt;/div&gt;" style="ellipse;whiteSpace=wrap;html=1;fontSize=29;fillColor=#1ba1e2;strokeColor=#006EAF;align=center;fontColor=#ffffff;" parent="1" vertex="1">
          <mxGeometry x="500" y="727" width="175" height="67" as="geometry" />
        </mxCell>
        <mxCell id="hqxpLSXbO06OZvYrCJ2E-24" value="&lt;font style=&quot;font-size: 21px;&quot;&gt;Customer&lt;/font&gt;" style="shape=umlActor;verticalLabelPosition=bottom;verticalAlign=top;html=1;outlineConnect=0;fontSize=13;fillColor=#fa6800;strokeColor=#C73500;fontColor=#000000;" parent="1" vertex="1">
          <mxGeometry x="41" y="544" width="30" height="60" as="geometry" />
        </mxCell>
        <mxCell id="pVYmx78iUG9guDjgUiHJ-1" value="&lt;font color=&quot;#000000&quot; style=&quot;font-size: 21px;&quot;&gt;Admin&lt;/font&gt;" style="shape=umlActor;verticalLabelPosition=bottom;verticalAlign=top;html=1;outlineConnect=0;fillColor=#60a917;fontColor=#ffffff;strokeColor=#2D7600;" vertex="1" parent="1">
          <mxGeometry x="760" y="449" width="30" height="60" as="geometry" />
        </mxCell>
        <mxCell id="pVYmx78iUG9guDjgUiHJ-2" value="&lt;font color=&quot;#000000&quot;&gt;System&lt;/font&gt;" style="shape=umlActor;verticalLabelPosition=bottom;verticalAlign=top;html=1;outlineConnect=0;fontSize=21;fontColor=#ffffff;fillColor=#1ba1e2;strokeColor=#006EAF;" vertex="1" parent="1">
          <mxGeometry x="771" y="805" width="30" height="60" as="geometry" />
        </mxCell>
        <mxCell id="pVYmx78iUG9guDjgUiHJ-9" value="" style="endArrow=none;html=1;rounded=0;fontSize=21;fontColor=#000000;entryX=0.036;entryY=0.36;entryDx=0;entryDy=0;entryPerimeter=0;" edge="1" parent="1">
          <mxGeometry width="50" height="50" relative="1" as="geometry">
            <mxPoint x="81" y="571" as="sourcePoint" />
            <mxPoint x="275.68000000000006" y="995" as="targetPoint" />
          </mxGeometry>
        </mxCell>
        <mxCell id="pVYmx78iUG9guDjgUiHJ-17" value="" style="endArrow=none;html=1;rounded=0;fontSize=21;fontColor=#000000;entryX=0;entryY=0.5;entryDx=0;entryDy=0;" edge="1" parent="1" target="hqxpLSXbO06OZvYrCJ2E-10">
          <mxGeometry width="50" height="50" relative="1" as="geometry">
            <mxPoint x="81" y="570" as="sourcePoint" />
            <mxPoint x="351" y="388" as="targetPoint" />
          </mxGeometry>
        </mxCell>
        <mxCell id="pVYmx78iUG9guDjgUiHJ-18" value="" style="endArrow=none;html=1;rounded=0;fontSize=21;fontColor=#000000;entryX=0;entryY=0.5;entryDx=0;entryDy=0;" edge="1" parent="1" target="hqxpLSXbO06OZvYrCJ2E-11">
          <mxGeometry width="50" height="50" relative="1" as="geometry">
            <mxPoint x="81" y="570" as="sourcePoint" />
            <mxPoint x="361" y="398" as="targetPoint" />
          </mxGeometry>
        </mxCell>
        <mxCell id="pVYmx78iUG9guDjgUiHJ-21" value="" style="endArrow=none;html=1;rounded=0;fontSize=21;fontColor=#000000;entryX=0;entryY=0.5;entryDx=0;entryDy=0;" edge="1" parent="1">
          <mxGeometry width="50" height="50" relative="1" as="geometry">
            <mxPoint x="81" y="570" as="sourcePoint" />
            <mxPoint x="271" y="798" as="targetPoint" />
          </mxGeometry>
        </mxCell>
        <mxCell id="pVYmx78iUG9guDjgUiHJ-23" value="" style="endArrow=none;html=1;rounded=0;fontSize=21;fontColor=#000000;entryX=0;entryY=0.5;entryDx=0;entryDy=0;" edge="1" parent="1">
          <mxGeometry width="50" height="50" relative="1" as="geometry">
            <mxPoint x="81" y="570" as="sourcePoint" />
            <mxPoint x="271" y="928" as="targetPoint" />
          </mxGeometry>
        </mxCell>
        <mxCell id="pVYmx78iUG9guDjgUiHJ-24" value="" style="endArrow=none;html=1;rounded=0;fontSize=21;fontColor=#000000;entryX=0;entryY=0.5;entryDx=0;entryDy=0;exitX=0.689;exitY=0.8;exitDx=0;exitDy=0;exitPerimeter=0;" edge="1" parent="1" target="hqxpLSXbO06OZvYrCJ2E-8">
          <mxGeometry width="50" height="50" relative="1" as="geometry">
            <mxPoint x="81.67000000000007" y="568" as="sourcePoint" />
            <mxPoint x="281" y="808" as="targetPoint" />
          </mxGeometry>
        </mxCell>
        <mxCell id="pVYmx78iUG9guDjgUiHJ-25" value="" style="endArrow=none;html=1;rounded=0;fontSize=21;fontColor=#000000;entryX=0.005;entryY=0.66;entryDx=0;entryDy=0;entryPerimeter=0;" edge="1" parent="1" target="hqxpLSXbO06OZvYrCJ2E-7">
          <mxGeometry width="50" height="50" relative="1" as="geometry">
            <mxPoint x="81" y="570" as="sourcePoint" />
            <mxPoint x="281" y="728" as="targetPoint" />
          </mxGeometry>
        </mxCell>
        <mxCell id="pVYmx78iUG9guDjgUiHJ-26" value="" style="endArrow=none;html=1;rounded=0;fontSize=21;fontColor=#000000;entryX=0;entryY=0.5;entryDx=0;entryDy=0;" edge="1" parent="1" target="hqxpLSXbO06OZvYrCJ2E-6">
          <mxGeometry width="50" height="50" relative="1" as="geometry">
            <mxPoint x="81" y="570" as="sourcePoint" />
            <mxPoint x="281.6500000000001" y="666" as="targetPoint" />
          </mxGeometry>
        </mxCell>
        <mxCell id="pVYmx78iUG9guDjgUiHJ-27" value="" style="endArrow=none;html=1;rounded=0;fontSize=21;fontColor=#000000;entryX=0;entryY=0.5;entryDx=0;entryDy=0;" edge="1" parent="1" target="hqxpLSXbO06OZvYrCJ2E-4">
          <mxGeometry width="50" height="50" relative="1" as="geometry">
            <mxPoint x="81" y="570" as="sourcePoint" />
            <mxPoint x="281" y="588" as="targetPoint" />
          </mxGeometry>
        </mxCell>
        <mxCell id="pVYmx78iUG9guDjgUiHJ-28" value="" style="endArrow=none;html=1;rounded=0;fontSize=21;fontColor=#000000;entryX=0;entryY=0.5;entryDx=0;entryDy=0;" edge="1" parent="1" target="hqxpLSXbO06OZvYrCJ2E-3">
          <mxGeometry width="50" height="50" relative="1" as="geometry">
            <mxPoint x="81" y="570" as="sourcePoint" />
            <mxPoint x="281" y="518" as="targetPoint" />
          </mxGeometry>
        </mxCell>
        <mxCell id="pVYmx78iUG9guDjgUiHJ-29" value="" style="endArrow=none;html=1;rounded=0;fontSize=21;fontColor=#000000;entryX=0;entryY=0.5;entryDx=0;entryDy=0;" edge="1" parent="1">
          <mxGeometry width="50" height="50" relative="1" as="geometry">
            <mxPoint x="81" y="570" as="sourcePoint" />
            <mxPoint x="271" y="380" as="targetPoint" />
          </mxGeometry>
        </mxCell>
        <mxCell id="pVYmx78iUG9guDjgUiHJ-30" value="" style="endArrow=none;html=1;rounded=0;fontSize=21;fontColor=#000000;entryX=0;entryY=0.5;entryDx=0;entryDy=0;" edge="1" parent="1" target="hqxpLSXbO06OZvYrCJ2E-2">
          <mxGeometry width="50" height="50" relative="1" as="geometry">
            <mxPoint x="81" y="570" as="sourcePoint" />
            <mxPoint x="271" y="380" as="targetPoint" />
          </mxGeometry>
        </mxCell>
        <mxCell id="pVYmx78iUG9guDjgUiHJ-31" value="" style="endArrow=none;html=1;rounded=0;fontSize=21;fontColor=#000000;entryX=1;entryY=0.5;entryDx=0;entryDy=0;" edge="1" parent="1" target="hqxpLSXbO06OZvYrCJ2E-15">
          <mxGeometry width="50" height="50" relative="1" as="geometry">
            <mxPoint x="750" y="480" as="sourcePoint" />
            <mxPoint x="450" y="610" as="targetPoint" />
          </mxGeometry>
        </mxCell>
        <mxCell id="pVYmx78iUG9guDjgUiHJ-32" value="" style="endArrow=none;html=1;rounded=0;fontSize=21;fontColor=#000000;entryX=1;entryY=0.5;entryDx=0;entryDy=0;" edge="1" parent="1" target="hqxpLSXbO06OZvYrCJ2E-16">
          <mxGeometry width="50" height="50" relative="1" as="geometry">
            <mxPoint x="760" y="490" as="sourcePoint" />
            <mxPoint x="640" y="315" as="targetPoint" />
          </mxGeometry>
        </mxCell>
        <mxCell id="pVYmx78iUG9guDjgUiHJ-33" value="" style="endArrow=none;html=1;rounded=0;fontSize=21;fontColor=#000000;entryX=1;entryY=0.5;entryDx=0;entryDy=0;" edge="1" parent="1" target="hqxpLSXbO06OZvYrCJ2E-18">
          <mxGeometry width="50" height="50" relative="1" as="geometry">
            <mxPoint x="760" y="490" as="sourcePoint" />
            <mxPoint x="660" y="388" as="targetPoint" />
          </mxGeometry>
        </mxCell>
        <mxCell id="pVYmx78iUG9guDjgUiHJ-34" value="" style="endArrow=none;html=1;rounded=0;fontSize=21;fontColor=#000000;entryX=1;entryY=0.5;entryDx=0;entryDy=0;" edge="1" parent="1" target="hqxpLSXbO06OZvYrCJ2E-19">
          <mxGeometry width="50" height="50" relative="1" as="geometry">
            <mxPoint x="760" y="490" as="sourcePoint" />
            <mxPoint x="650" y="473.5" as="targetPoint" />
          </mxGeometry>
        </mxCell>
        <mxCell id="pVYmx78iUG9guDjgUiHJ-35" value="" style="endArrow=none;html=1;rounded=0;fontSize=21;fontColor=#000000;entryX=1;entryY=0.5;entryDx=0;entryDy=0;" edge="1" parent="1" target="hqxpLSXbO06OZvYrCJ2E-17">
          <mxGeometry width="50" height="50" relative="1" as="geometry">
            <mxPoint x="760" y="490" as="sourcePoint" />
            <mxPoint x="685" y="550" as="targetPoint" />
          </mxGeometry>
        </mxCell>
        <mxCell id="pVYmx78iUG9guDjgUiHJ-37" value="" style="endArrow=none;html=1;rounded=0;fontSize=21;fontColor=#000000;exitX=1;exitY=0.5;exitDx=0;exitDy=0;" edge="1" parent="1" source="hqxpLSXbO06OZvYrCJ2E-20">
          <mxGeometry width="50" height="50" relative="1" as="geometry">
            <mxPoint x="631" y="710" as="sourcePoint" />
            <mxPoint x="770" y="850" as="targetPoint" />
          </mxGeometry>
        </mxCell>
        <mxCell id="pVYmx78iUG9guDjgUiHJ-38" value="" style="endArrow=none;html=1;rounded=0;fontSize=21;fontColor=#000000;exitX=1;exitY=0.5;exitDx=0;exitDy=0;" edge="1" parent="1" source="hqxpLSXbO06OZvYrCJ2E-23">
          <mxGeometry width="50" height="50" relative="1" as="geometry">
            <mxPoint x="641" y="720" as="sourcePoint" />
            <mxPoint x="770" y="850" as="targetPoint" />
          </mxGeometry>
        </mxCell>
        <mxCell id="pVYmx78iUG9guDjgUiHJ-39" value="" style="endArrow=none;html=1;rounded=0;fontSize=21;fontColor=#000000;exitX=1;exitY=0.5;exitDx=0;exitDy=0;" edge="1" parent="1" source="hqxpLSXbO06OZvYrCJ2E-21">
          <mxGeometry width="50" height="50" relative="1" as="geometry">
            <mxPoint x="685" y="799.5" as="sourcePoint" />
            <mxPoint x="770" y="850" as="targetPoint" />
          </mxGeometry>
        </mxCell>
        <mxCell id="pVYmx78iUG9guDjgUiHJ-40" value="" style="endArrow=none;html=1;rounded=0;fontSize=21;fontColor=#000000;exitX=1;exitY=0.5;exitDx=0;exitDy=0;" edge="1" parent="1" source="hqxpLSXbO06OZvYrCJ2E-22">
          <mxGeometry width="50" height="50" relative="1" as="geometry">
            <mxPoint x="665" y="874" as="sourcePoint" />
            <mxPoint x="770" y="850" as="targetPoint" />
          </mxGeometry>
        </mxCell>
        <mxCell id="pVYmx78iUG9guDjgUiHJ-41" value="" style="endArrow=none;html=1;rounded=0;fontSize=21;fontColor=#000000;entryX=1;entryY=0.5;entryDx=0;entryDy=0;exitX=0;exitY=0.5;exitDx=0;exitDy=0;" edge="1" parent="1" source="hqxpLSXbO06OZvYrCJ2E-20" target="hqxpLSXbO06OZvYrCJ2E-9">
          <mxGeometry width="50" height="50" relative="1" as="geometry">
            <mxPoint x="690" y="670" as="sourcePoint" />
            <mxPoint x="780" y="860" as="targetPoint" />
          </mxGeometry>
        </mxCell>
        <mxCell id="pVYmx78iUG9guDjgUiHJ-42" value="" style="endArrow=none;html=1;rounded=0;fontSize=21;fontColor=#000000;entryX=0;entryY=0.5;entryDx=0;entryDy=0;exitX=1;exitY=0.5;exitDx=0;exitDy=0;" edge="1" parent="1" source="hqxpLSXbO06OZvYrCJ2E-4" target="hqxpLSXbO06OZvYrCJ2E-21">
          <mxGeometry width="50" height="50" relative="1" as="geometry">
            <mxPoint x="400" y="660" as="sourcePoint" />
            <mxPoint x="450" y="610" as="targetPoint" />
          </mxGeometry>
        </mxCell>
        <mxCell id="pVYmx78iUG9guDjgUiHJ-43" value="" style="endArrow=none;html=1;rounded=0;fontSize=21;fontColor=#000000;entryX=0;entryY=0.5;entryDx=0;entryDy=0;exitX=1;exitY=0.5;exitDx=0;exitDy=0;" edge="1" parent="1" source="hqxpLSXbO06OZvYrCJ2E-4" target="hqxpLSXbO06OZvYrCJ2E-23">
          <mxGeometry width="50" height="50" relative="1" as="geometry">
            <mxPoint x="420" y="518" as="sourcePoint" />
            <mxPoint x="510" y="702" as="targetPoint" />
          </mxGeometry>
        </mxCell>
        <mxCell id="pVYmx78iUG9guDjgUiHJ-44" value="" style="endArrow=none;html=1;rounded=0;fontSize=21;fontColor=#000000;" edge="1" parent="1">
          <mxGeometry width="50" height="50" relative="1" as="geometry">
            <mxPoint x="80" y="570" as="sourcePoint" />
            <mxPoint x="270" y="1080" as="targetPoint" />
          </mxGeometry>
        </mxCell>
        <mxCell id="pVYmx78iUG9guDjgUiHJ-45" value="" style="endArrow=none;html=1;rounded=0;fontSize=21;fontColor=#000000;" edge="1" parent="1">
          <mxGeometry width="50" height="50" relative="1" as="geometry">
            <mxPoint x="80" y="570" as="sourcePoint" />
            <mxPoint x="270" y="1160" as="targetPoint" />
          </mxGeometry>
        </mxCell>
        <mxCell id="pVYmx78iUG9guDjgUiHJ-46" value="" style="endArrow=none;html=1;rounded=0;fontSize=21;fontColor=#000000;exitX=1;exitY=0.5;exitDx=0;exitDy=0;entryX=0;entryY=0.5;entryDx=0;entryDy=0;" edge="1" parent="1" source="hqxpLSXbO06OZvYrCJ2E-12" target="hqxpLSXbO06OZvYrCJ2E-22">
          <mxGeometry width="50" height="50" relative="1" as="geometry">
            <mxPoint x="685" y="946.5" as="sourcePoint" />
            <mxPoint x="780" y="860" as="targetPoint" />
          </mxGeometry>
        </mxCell>
      </root>
    </mxGraphModel>
  </diagram>
</mxfile>
